<svg xmlns="http://www.w3.org/2000/svg" width="36.283" height="37.35" viewBox="0 0 36.283 37.35">
    <defs>
        <style>
            .cls-1{fill:none;stroke:#6db757}
        </style>
    </defs>
    <g id="Símbolo_8_8" data-name="Símbolo 8 – 8" transform="translate(-1079.927 -49.16)">
        <path id="Caminho_3600" d="M18.224 24.467a3.387 3.387 0 1 1-6.481 1.315l5.635-2.471a3.367 3.367 0 0 1 .846 1.156z" class="cls-1" data-name="Caminho 3600" transform="rotate(25 433.419 2488.667)"/>
        <path id="Caminho_3601" d="M.824 15.513c-1.59-4-.781-7.813 1.6-10.307a3.01 3.01 0 0 1-.271-.462 3.386 3.386 0 0 1 6.2-2.718 3.089 3.089 0 0 1 .152.5 9.949 9.949 0 0 1 8.913 5.784s2.721 6.247 5.709 6.744c.092.005 1.695.045 2.184 1.213.461 1.1-.488 2.584-2.139 3.3l-17.879 7.7c-1.649.711-3.471.426-3.861-.7a2.507 2.507 0 0 1 .54-2.244c1.686-2.6-1.148-8.81-1.148-8.81z" class="cls-1" data-name="Caminho 3601" transform="rotate(25 433.419 2488.667)"/>
    </g>
</svg>
